<svg width="179" height="39" viewBox="0 0 179 39" fill="none" xmlns="http://www.w3.org/2000/svg">
<rect width="39.1248" height="39" rx="19.5" fill="#03699C"/>
<g clip-path="url(#clip0_20_1530)">
<path fill-rule="evenodd" clip-rule="evenodd" d="M18.2323 5.44489C17.8947 6.39656 17.6085 7.39964 17.4436 8.52403C17.8076 9.88195 19.3978 10.0766 19.0959 11.979C19.0457 12.2956 18.9899 12.6987 19.0207 13.0304C18.5483 13.2626 17.7743 13.341 17.1433 13.5187C17.2164 12.9768 17.169 12.332 17.0308 11.7163C16.801 11.5778 16.7534 11.2317 16.5048 11.0029C16.2205 10.7402 15.8632 10.5897 15.6036 10.3271C15.1657 9.88383 14.8413 8.84345 15.0779 8.44943C15.0068 7.56578 15.2215 7.16799 15.3033 6.12103C16.1559 5.77716 17.2606 5.43925 18.2323 5.44489Z" fill="white"/>
<path fill-rule="evenodd" clip-rule="evenodd" d="M23.9406 6.15882C23.5052 6.69014 22.6563 7.3434 22.1005 7.99885C21.9212 8.21043 21.6159 8.64834 21.6122 8.97497C21.6072 9.37588 21.8727 10.168 22.0629 10.5896C22.146 10.7736 22.3237 10.905 22.3632 11.1156C22.5303 12.0024 21.699 12.6951 21.462 13.4813C20.8213 13.308 20.1539 13.1898 19.5471 13.1434C19.7145 12.5556 20.1355 12.108 20.1853 11.4535C20.2499 10.6065 19.6092 9.92476 19.3217 9.31288C19.0502 8.78501 19.1957 8.42421 19.2841 7.92361C19.3587 7.92299 19.3317 7.82111 19.4342 7.84838C19.5599 7.00862 20.3195 6.50739 20.6734 5.97075C20.805 5.77138 20.7686 5.51967 21.0862 5.48268C21.4467 5.44099 22.0006 5.6228 22.4381 5.70806C22.9864 5.81433 23.5133 6.01275 23.9406 6.15882Z" fill="white"/>
<path fill-rule="evenodd" clip-rule="evenodd" d="M13.1628 6.94727C13.3214 8.76629 12.939 11.4799 15.2282 11.5285C16.0338 11.9498 16.4046 12.8056 16.7679 13.6691C16.0896 14.0046 15.5695 14.4986 15.0028 14.9459C14.6012 14.4233 14.6088 13.7613 14.2141 13.2933C14.1053 13.1645 13.9151 13.1551 13.801 13.0679C13.6402 12.9454 13.5759 12.7739 13.3878 12.6924C12.9107 12.4855 12.2801 12.3843 11.8108 12.0915C10.9535 11.3019 10.8256 9.7935 10.6466 8.59921C10.6789 8.48104 10.7886 8.4406 10.7968 8.2986C11.6456 7.93342 12.2954 7.16951 13.1628 6.94727Z" fill="white"/>
<path fill-rule="evenodd" clip-rule="evenodd" d="M28.6342 8.74953C27.8785 9.23822 26.9381 9.57801 26.156 10.2143C25.9215 10.4046 25.6529 10.6968 25.5551 11.0406C25.389 11.6249 25.6379 12.46 25.4799 12.9932C25.3407 13.464 24.4849 14.2182 24.2031 14.4201C24.0809 14.5075 23.7536 14.6849 23.6399 14.6831C23.4135 14.679 23.3186 14.4257 23.1518 14.3075C22.7785 14.0433 22.2641 13.8477 21.8751 13.6317C22.4869 12.9048 23.5013 12.7035 23.4145 11.5287C23.3342 10.4425 23.3928 9.27019 24.2031 8.56208C24.6627 8.36335 24.8993 7.96023 25.33 7.66088C26.0065 7.19037 26.2378 7.11545 26.9071 7.54835C27.4876 7.92356 28.1133 8.33576 28.6342 8.74953Z" fill="white"/>
<path fill-rule="evenodd" clip-rule="evenodd" d="M31.7514 12.5051C30.6336 12.8744 29.4355 12.859 28.5218 13.4439C27.9996 13.7781 28.0833 14.7109 27.7707 15.2839C27.319 16.1127 26.1335 16.461 25.0292 16.6735C24.7358 16.0654 24.307 15.5933 23.9778 15.0209C24.6142 14.6912 25.216 14.6225 25.7429 14.2699C26.5426 13.7345 26.2392 12.4496 26.7567 11.6036C27.3999 10.9911 28.6719 10.5967 29.7985 10.3268C30.0659 10.2626 30.2327 10.293 30.3994 10.4394C30.8856 10.8663 31.4047 11.8177 31.7514 12.5051Z" fill="white"/>
<path fill-rule="evenodd" clip-rule="evenodd" d="M14.7024 15.3211C14.2893 15.7468 13.9326 16.2286 13.726 16.8608C13.6103 16.8872 13.6539 16.8872 13.5382 16.8608C13.1912 16.5774 12.8546 16.1455 12.4493 15.8847C12.2117 15.7317 11.76 15.4443 11.4728 15.3963C11.0293 15.3227 10.5582 15.5424 10.0836 15.5089C9.65884 15.4788 9.39678 15.2722 8.957 15.1709C8.46549 14.7619 7.97962 14.2917 7.56742 13.7061C7.36806 13.4231 6.901 13.1723 6.96651 12.73C6.99221 12.556 7.21509 12.4238 7.34204 12.2416C7.48372 12.0391 7.52197 11.8009 7.64234 11.6407C7.90345 11.2937 8.35954 11.1392 8.50592 10.7395C8.62065 10.7123 8.64291 10.7781 8.7313 10.7771C9.18112 11.5539 9.67764 12.2843 10.3459 12.8425C10.7782 14.0346 12.001 13.2225 13.0123 13.6688C13.4834 13.8767 14.0216 14.655 14.4391 14.9829C14.563 15.0804 14.6949 15.0794 14.7024 15.3211Z" fill="white"/>
<path fill-rule="evenodd" clip-rule="evenodd" d="M33.5538 17.5748C32.4275 17.5961 30.6699 16.6479 29.6859 17.6125C29.5095 18.0742 29.1584 18.3616 28.9349 18.7763C27.9889 19.4089 26.8513 19.1462 25.705 19.2647C25.8238 18.6252 25.452 17.7237 25.3671 17.0868C26.3112 17.0604 26.9889 17.2169 27.6202 16.899C28.5603 16.4254 28.6434 15.0283 29.5352 14.4957C30.569 14.2556 31.7655 14.5769 32.7275 14.6082C33.3005 15.3737 33.2478 16.5163 33.5538 17.5748Z" fill="white"/>
<path fill-rule="evenodd" clip-rule="evenodd" d="M13.5007 17.0492C13.5944 17.7012 12.9913 18.5028 13.1628 19.34C13.1192 19.3337 13.096 19.3482 13.0878 19.3773C12.5274 19.0892 11.8142 18.6338 10.9472 18.7764C10.1933 18.9005 9.56265 19.8845 8.65643 19.9406C8.08436 19.976 7.48032 19.6262 7.15432 19.34C6.92957 19.1422 6.56282 19.0435 6.29073 18.8516C5.66255 18.4087 5.36194 18.2084 5.46476 17.3495C5.54187 16.7051 5.82242 16.0208 5.99043 15.397C6.97502 15.7104 7.8035 16.8364 8.95704 17.0868C9.1774 17.1345 9.65042 17.1439 9.93347 17.0495C10.2253 16.9521 10.7118 16.4966 11.0977 16.411C11.9443 16.222 12.6449 17.0116 13.5007 17.0492Z" fill="white"/>
<path fill-rule="evenodd" clip-rule="evenodd" d="M33.6663 20.2031C33.7522 21.2435 33.4221 22.1164 33.2155 22.9819C31.9805 22.5681 31.1395 21.25 29.648 21.5547C28.992 22.2409 27.9995 22.7183 26.9068 22.2309C26.8002 22.1832 26.7557 22.0685 26.6438 22.0055C26.1902 21.7488 25.7598 21.7456 25.4796 21.4046C25.6765 20.7708 25.72 20.2238 25.7802 19.4893C26.1445 19.5993 26.5441 19.8937 26.9817 19.9777C27.0877 19.9978 27.2181 19.9373 27.3196 19.9777C27.4776 20.0404 27.6854 20.2984 28.0331 20.2407C28.3393 20.1896 28.796 19.8532 29.0471 19.6398C29.3543 19.379 29.6734 19.0994 29.9107 18.8135C31.3827 18.448 32.6084 19.5056 33.6663 20.2031Z" fill="white"/>
<path fill-rule="evenodd" clip-rule="evenodd" d="M13.1252 19.7149C13.4136 20.2654 13.348 21.1694 13.5759 21.7803C13.2669 21.9223 13.0465 21.7929 12.6747 21.818C11.5014 21.8976 10.8212 22.7909 10.309 23.6207C9.0881 24.5918 7.48223 23.8019 6.02777 23.7332C5.71462 22.7395 5.53877 21.933 5.46448 20.8039C6.63306 21.1506 8.21009 22.0668 9.33229 21.2547C9.9752 20.8954 10.3037 19.846 11.1347 19.6776C11.7704 19.5485 12.4026 19.7171 13.1252 19.7149Z" fill="white"/>
<path fill-rule="evenodd" clip-rule="evenodd" d="M25.2921 21.8555C26.0034 22.4394 26.3397 23.219 27.5829 23.1322C28.3431 23.0792 28.943 22.6357 29.8361 22.9821C30.606 23.467 31.3388 24.4036 31.9388 25.2352C32.0466 25.3844 32.2313 25.5553 32.2394 25.648C32.2786 26.0938 31.4771 26.7718 31.3755 27.2627C31.021 27.4113 30.9765 28.062 30.6244 28.089C30.242 27.689 29.9768 27.1614 29.648 26.6618C29.2527 26.0609 28.8487 25.301 27.8832 25.3101C27.545 25.3133 27.1438 25.3061 26.8319 25.4227C25.5915 25.1735 24.9564 24.319 24.2405 23.545C24.6198 23.0103 25.0019 22.4789 25.2921 21.8555Z" fill="white"/>
<path fill-rule="evenodd" clip-rule="evenodd" d="M15.0404 23.9212C14.2825 24.1585 13.6815 24.149 13.1252 24.597C12.397 25.1835 12.7421 26.6796 12.2989 27.5263C11.8164 28.4479 9.93223 28.5874 8.69374 28.5024C8.08029 27.6514 7.42704 26.8398 6.96625 25.8361C8.06242 25.6411 9.64133 25.9232 10.4585 25.2728C10.4347 25.0048 10.6814 24.9697 10.7964 24.7844C11.1779 24.1719 11.2948 23.3193 11.8478 22.9444C12.4127 22.5614 13.0593 22.4836 13.8003 22.1934C14.142 22.8416 14.5831 23.3895 15.0404 23.9212Z" fill="white"/>
<path fill-rule="evenodd" clip-rule="evenodd" d="M23.865 23.8457C24.4239 24.294 24.2659 25.1246 24.7665 25.6105C25.0101 25.8472 25.537 25.8716 25.9307 25.986C26.499 26.1515 27.451 26.4644 27.8081 26.7747C27.888 26.8443 27.8112 27.0452 28.0334 27.0001C28.3083 27.5587 28.592 28.0549 28.8221 28.8777C28.8748 29.0655 29.0754 29.6567 29.0478 29.8165C29.0089 30.0416 28.4325 30.3783 28.2215 30.53C27.6234 30.9604 27.1755 31.3027 26.5313 31.6566C26.2408 30.8434 26.5548 29.5228 26.1185 28.6523C25.7242 27.8659 24.2415 28.005 23.64 27.3756C23.0143 26.7208 22.9271 25.9547 22.3259 25.0472C22.7146 24.5225 23.4804 24.3748 23.865 23.8457Z" fill="white"/>
<path fill-rule="evenodd" clip-rule="evenodd" d="M17.1434 25.3107C16.8531 25.952 16.0086 26.1959 15.7538 26.8877C15.4325 27.761 16.0403 28.9807 15.8663 29.8546C15.7043 30.668 15.0222 31.2464 14.3642 31.6946C14.157 31.8357 13.6536 32.1993 13.3878 32.1075C12.4847 31.7953 11.5086 30.9668 10.7967 30.4928C11.0544 30.2 11.3973 30.138 11.6979 29.9671C11.9662 29.8142 12.1897 29.5675 12.449 29.4039C12.8239 29.1669 13.4605 28.992 13.6128 28.4274C13.7542 27.9043 13.5345 27.6632 13.5379 27.1507C13.5389 26.9999 13.5351 26.7231 13.5379 26.5125C13.5558 25.2166 14.6388 24.9097 15.3403 24.1841C16.04 24.4615 16.4453 25.0323 17.1434 25.3107Z" fill="white"/>
<path fill-rule="evenodd" clip-rule="evenodd" d="M24.2032 32.7461C23.2177 32.9455 22.1541 33.4392 21.1241 33.3467C21.4786 32.4646 21.7096 31.5662 21.9127 30.6055C21.8983 29.6701 21.1322 29.314 20.7112 28.7655C20.0968 27.9646 20.0711 26.8292 20.0354 25.6863C20.1689 25.5622 20.3388 25.6355 20.5235 25.6111C21.0535 25.5412 21.6328 25.1848 22.0632 25.1606C22.134 25.8515 22.0259 26.5217 22.2133 27.0759C22.5422 28.0483 23.8731 28.2802 24.316 29.1413C24.6784 30.2058 24.5173 31.6264 24.2032 32.7461Z" fill="white"/>
<path fill-rule="evenodd" clip-rule="evenodd" d="M19.6972 25.6856C19.6239 26.2843 19.1148 26.7463 19.0211 27.3755C18.9048 28.1585 19.3182 28.7306 19.6972 29.2531C20.1796 30.2189 20.1674 31.2671 19.6972 32.1448C19.5693 32.383 18.896 33.5002 18.6832 33.5344C17.8142 33.6723 16.7156 33.0855 15.7166 33.046C15.8363 32.6623 16.2507 32.5407 16.5052 32.2197C16.6732 32.0075 16.7745 31.6323 16.9184 31.3561C16.9952 31.2075 17.1428 31.1276 17.181 31.0179C17.2121 30.9301 17.318 30.4502 17.3312 30.3048C17.4121 29.4032 16.5726 28.7613 16.693 27.6008C16.7645 26.9122 17.0315 26.0968 17.3312 25.5731C17.56 25.1724 19.0665 25.8737 19.6972 25.6856Z" fill="white"/>
</g>
<path d="M57.3263 17.7758C61.178 18.7576 64.0982 19.5883 64.0982 23.6162C64.0982 26.4861 61.9332 28.8776 57.4019 28.8776C52.9964 28.8776 49.6482 26.5868 49.472 22.5085H52.4677C52.6188 24.7994 54.1796 26.3098 57.4019 26.3098C60.0703 26.3098 61.1025 25.1267 61.1025 23.7421C61.1025 21.6023 59.5668 21.1995 56.0173 20.3184C53.1978 19.6135 50.1517 18.531 50.1517 15.1073C50.1517 11.9102 52.6188 10.1228 56.5459 10.1228C60.4983 10.1228 63.3681 12.1871 63.6199 15.8877H60.6242C60.3472 13.7983 59.0382 12.6906 56.5459 12.6906C54.4061 12.6906 53.1222 13.4962 53.1222 14.8304C53.1222 16.794 54.8089 17.1464 57.3263 17.7758ZM80.356 15.2836C82.9489 15.2836 84.2832 16.8444 84.2832 19.6135V28.5H81.6147V20.3687C81.6147 18.6317 81.2623 17.5241 79.4497 17.5241C77.6624 17.5241 76.5547 18.7576 76.5547 20.6708V28.5H73.8862V20.3687C73.8862 18.6317 73.5338 17.5241 71.6961 17.5241C69.9339 17.5241 68.801 18.7576 68.801 20.6708V28.5H66.1578V15.636H68.801V17.2975H68.8514C69.5311 16.2905 70.7395 15.2836 72.6779 15.2836C74.4904 15.2836 75.5729 16.1143 76.1016 17.4989H76.1519C77.1085 16.2653 78.3672 15.2836 80.356 15.2836ZM94.5135 19.0093C94.5135 18.0779 93.9597 17.373 92.1975 17.373C90.0829 17.373 89.3025 18.0275 89.1766 19.689H86.6088C86.7347 17.222 88.3207 15.2836 92.1975 15.2836C95.0422 15.2836 97.1568 16.366 97.1568 19.7897V25.9071C97.1568 26.8133 97.3582 27.2916 98.3903 27.1909V28.4497C97.7862 28.6762 97.3582 28.7266 96.8547 28.7266C95.445 28.7266 94.7904 28.2231 94.5387 26.9644H94.4883C93.6828 28.0972 92.2227 28.8776 90.2339 28.8776C87.6158 28.8776 86.0046 27.3672 86.0046 25.2022C86.0046 22.3827 88.0941 21.5016 91.3164 20.8722C93.3052 20.4946 94.5135 20.2429 94.5135 19.0093ZM90.8129 26.7882C93.0031 26.7882 94.5135 25.7057 94.5135 23.6162V21.6778C94.0856 21.9799 93.0534 22.282 91.8199 22.5337C89.6297 23.012 88.6731 23.6414 88.6731 24.9504C88.6731 26.1336 89.378 26.7882 90.8129 26.7882ZM106.054 15.3339C106.507 15.3339 106.834 15.3591 107.212 15.4094V17.9017H107.161C104.619 17.4737 102.58 19.1856 102.58 21.9295V28.5H99.9364V15.636H102.58V18.0527H102.63C103.31 16.4416 104.367 15.3339 106.054 15.3339ZM115.126 17.801H112.709V24.7742C112.709 26.2343 113.414 26.4105 115.126 26.3098V28.4748C114.597 28.6007 114.018 28.6762 113.313 28.6762C111.199 28.6762 110.041 27.7196 110.041 25.0008V17.801H108.178V15.636H110.041V11.5829H112.709V15.636H115.126V17.801ZM117.324 10.5005H120.32V25.9574H129.307V28.5H117.324V10.5005ZM136.405 26.7126C138.595 26.7126 139.476 25.3532 139.703 24.5728H142.346C141.692 27.0147 139.778 28.8776 136.481 28.8776C132.478 28.8776 130.036 26.1085 130.036 22.0806C130.036 17.9017 132.478 15.2836 136.355 15.2836C140.509 15.2836 142.548 18.1786 142.548 22.7603H132.679C132.679 24.9253 134.064 26.7126 136.405 26.7126ZM136.355 17.373C134.215 17.373 132.679 18.8079 132.679 20.7967H139.904C139.904 18.8079 138.495 17.373 136.355 17.373ZM152.139 19.0093C152.139 18.0779 151.585 17.373 149.823 17.373C147.708 17.373 146.928 18.0275 146.802 19.689H144.234C144.36 17.222 145.946 15.2836 149.823 15.2836C152.667 15.2836 154.782 16.366 154.782 19.7897V25.9071C154.782 26.8133 154.983 27.2916 156.016 27.1909V28.4497C155.411 28.6762 154.983 28.7266 154.48 28.7266C153.07 28.7266 152.416 28.2231 152.164 26.9644H152.114C151.308 28.0972 149.848 28.8776 147.859 28.8776C145.241 28.8776 143.63 27.3672 143.63 25.2022C143.63 22.3827 145.719 21.5016 148.942 20.8722C150.93 20.4946 152.139 20.2429 152.139 19.0093ZM148.438 26.7882C150.628 26.7882 152.139 25.7057 152.139 23.6162V21.6778C151.711 21.9799 150.679 22.282 149.445 22.5337C147.255 23.012 146.298 23.6414 146.298 24.9504C146.298 26.1336 147.003 26.7882 148.438 26.7882ZM163.679 15.3339C164.132 15.3339 164.459 15.3591 164.837 15.4094V17.9017H164.787C162.244 17.4737 160.205 19.1856 160.205 21.9295V28.5H157.562V15.636H160.205V18.0527H160.255C160.935 16.4416 161.992 15.3339 163.679 15.3339ZM173.458 15.2836C175.849 15.2836 177.737 16.6681 177.737 19.6135V28.5H175.069V20.3687C175.069 18.6317 174.339 17.5241 172.526 17.5241C170.487 17.5241 169.178 18.7576 169.178 20.6708V28.5H166.535V15.636H169.178V17.2975H169.229C169.908 16.2905 171.242 15.2836 173.458 15.2836Z" fill="#03699C"/>
<defs>
<clipPath id="clip0_20_1530">
<rect width="28.2354" height="28.1107" fill="white" transform="translate(5.44464 5.44482)"/>
</clipPath>
</defs>
</svg>
